<mxfile host="app.diagrams.net" agent="Mozilla/5.0 (X11; Linux x86_64; rv:134.0) Gecko/20100101 Firefox/134.0" version="26.1.1">
  <diagram name="Page-1" id="3AyVMmp76hwWcoCmLLa8">
    <mxGraphModel dx="1434" dy="749" grid="1" gridSize="10" guides="1" tooltips="1" connect="1" arrows="1" fold="1" page="1" pageScale="1" pageWidth="850" pageHeight="1100" math="0" shadow="0">
      <root>
        <mxCell id="0" />
        <mxCell id="1" parent="0" />
        <mxCell id="MkOw1DYcNHuiIUs4hIeb-15" style="edgeStyle=orthogonalEdgeStyle;rounded=0;orthogonalLoop=1;jettySize=auto;html=1;exitX=0.5;exitY=1;exitDx=0;exitDy=0;entryX=0.5;entryY=0;entryDx=0;entryDy=0;" parent="1" source="MkOw1DYcNHuiIUs4hIeb-1" target="MkOw1DYcNHuiIUs4hIeb-14" edge="1">
          <mxGeometry relative="1" as="geometry" />
        </mxCell>
        <mxCell id="MkOw1DYcNHuiIUs4hIeb-24" style="edgeStyle=orthogonalEdgeStyle;rounded=0;orthogonalLoop=1;jettySize=auto;html=1;exitX=1;exitY=0.5;exitDx=0;exitDy=0;entryX=0.5;entryY=0;entryDx=0;entryDy=0;" parent="1" source="MkOw1DYcNHuiIUs4hIeb-1" target="MkOw1DYcNHuiIUs4hIeb-23" edge="1">
          <mxGeometry relative="1" as="geometry" />
        </mxCell>
        <mxCell id="MkOw1DYcNHuiIUs4hIeb-31" style="edgeStyle=orthogonalEdgeStyle;rounded=0;orthogonalLoop=1;jettySize=auto;html=1;exitX=0;exitY=0.5;exitDx=0;exitDy=0;entryX=0.5;entryY=0;entryDx=0;entryDy=0;" parent="1" source="MkOw1DYcNHuiIUs4hIeb-1" target="MkOw1DYcNHuiIUs4hIeb-29" edge="1">
          <mxGeometry relative="1" as="geometry" />
        </mxCell>
        <mxCell id="MkOw1DYcNHuiIUs4hIeb-1" value="&lt;div&gt;&lt;font style=&quot;font-size: 14px;&quot;&gt;Esquema del Capitulo 7&lt;/font&gt;&lt;/div&gt;&lt;div&gt;&lt;font style=&quot;font-size: 14px;&quot;&gt;Metodos de Graficacion - Pedro Alson&lt;/font&gt;&lt;br&gt;&lt;/div&gt;" style="rounded=0;whiteSpace=wrap;html=1;fillColor=#ffe6cc;strokeColor=#d79b00;" parent="1" vertex="1">
          <mxGeometry x="285" y="20" width="280" height="50" as="geometry" />
        </mxCell>
        <mxCell id="MkOw1DYcNHuiIUs4hIeb-26" style="edgeStyle=orthogonalEdgeStyle;rounded=0;orthogonalLoop=1;jettySize=auto;html=1;exitX=0.5;exitY=1;exitDx=0;exitDy=0;" parent="1" source="MkOw1DYcNHuiIUs4hIeb-2" target="MkOw1DYcNHuiIUs4hIeb-25" edge="1">
          <mxGeometry relative="1" as="geometry" />
        </mxCell>
        <mxCell id="MkOw1DYcNHuiIUs4hIeb-2" value="&lt;font style=&quot;font-size: 14px;&quot;&gt;Definiciones y Ejemplos&lt;/font&gt;" style="rounded=0;whiteSpace=wrap;html=1;fillColor=#f8cecc;strokeColor=#b85450;" parent="1" vertex="1">
          <mxGeometry x="52.5" y="205" width="180" height="50" as="geometry" />
        </mxCell>
        <mxCell id="MkOw1DYcNHuiIUs4hIeb-10" style="edgeStyle=orthogonalEdgeStyle;rounded=0;orthogonalLoop=1;jettySize=auto;html=1;exitX=0.5;exitY=1;exitDx=0;exitDy=0;" parent="1" source="MkOw1DYcNHuiIUs4hIeb-6" target="MkOw1DYcNHuiIUs4hIeb-9" edge="1">
          <mxGeometry relative="1" as="geometry" />
        </mxCell>
        <mxCell id="MkOw1DYcNHuiIUs4hIeb-6" value="&lt;font style=&quot;font-size: 14px;&quot;&gt;Resolucion Aproximada de inecuaciones&lt;/font&gt;" style="rounded=0;whiteSpace=wrap;html=1;fillColor=#f8cecc;strokeColor=#b85450;" parent="1" vertex="1">
          <mxGeometry x="50" y="405" width="185" height="70" as="geometry" />
        </mxCell>
        <mxCell id="MkOw1DYcNHuiIUs4hIeb-13" style="edgeStyle=orthogonalEdgeStyle;rounded=0;orthogonalLoop=1;jettySize=auto;html=1;exitX=0.5;exitY=1;exitDx=0;exitDy=0;entryX=0.5;entryY=0;entryDx=0;entryDy=0;" parent="1" source="MkOw1DYcNHuiIUs4hIeb-9" target="MkOw1DYcNHuiIUs4hIeb-12" edge="1">
          <mxGeometry relative="1" as="geometry" />
        </mxCell>
        <mxCell id="MkOw1DYcNHuiIUs4hIeb-9" value="&lt;font style=&quot;font-size: 14px;&quot;&gt;Inecuaciones con valor absoluto&lt;/font&gt;" style="rounded=0;whiteSpace=wrap;html=1;fillColor=#f8cecc;strokeColor=#b85450;" parent="1" vertex="1">
          <mxGeometry x="70" y="525" width="145" height="60" as="geometry" />
        </mxCell>
        <mxCell id="MkOw1DYcNHuiIUs4hIeb-12" value="&lt;font style=&quot;font-size: 14px;&quot;&gt;Ejemlos y ejercicios Generales&lt;/font&gt;" style="rounded=1;whiteSpace=wrap;html=1;fillColor=#ffe6cc;strokeColor=#d79b00;" parent="1" vertex="1">
          <mxGeometry x="67.5" y="625" width="150" height="100" as="geometry" />
        </mxCell>
        <mxCell id="MkOw1DYcNHuiIUs4hIeb-17" style="edgeStyle=orthogonalEdgeStyle;rounded=0;orthogonalLoop=1;jettySize=auto;html=1;exitX=0.5;exitY=1;exitDx=0;exitDy=0;entryX=0.5;entryY=0;entryDx=0;entryDy=0;" parent="1" source="MkOw1DYcNHuiIUs4hIeb-14" target="MkOw1DYcNHuiIUs4hIeb-16" edge="1">
          <mxGeometry relative="1" as="geometry" />
        </mxCell>
        <mxCell id="MkOw1DYcNHuiIUs4hIeb-14" value="&lt;font style=&quot;font-size: 14px;&quot;&gt;Inecuaciones con dos variables&lt;/font&gt;" style="rounded=0;whiteSpace=wrap;html=1;fillColor=#f8cecc;strokeColor=#b85450;" parent="1" vertex="1">
          <mxGeometry x="345" y="95" width="160" height="60" as="geometry" />
        </mxCell>
        <mxCell id="MkOw1DYcNHuiIUs4hIeb-20" style="edgeStyle=orthogonalEdgeStyle;rounded=0;orthogonalLoop=1;jettySize=auto;html=1;exitX=0.5;exitY=1;exitDx=0;exitDy=0;entryX=0.5;entryY=0;entryDx=0;entryDy=0;" parent="1" source="MkOw1DYcNHuiIUs4hIeb-16" target="MkOw1DYcNHuiIUs4hIeb-19" edge="1">
          <mxGeometry relative="1" as="geometry" />
        </mxCell>
        <mxCell id="MkOw1DYcNHuiIUs4hIeb-16" value="&lt;font style=&quot;font-size: 14px;&quot;&gt;Definiciones y Algunos ejemplos&lt;/font&gt;" style="rounded=0;whiteSpace=wrap;html=1;fillColor=#f8cecc;strokeColor=#b85450;" parent="1" vertex="1">
          <mxGeometry x="340" y="200" width="170" height="65" as="geometry" />
        </mxCell>
        <mxCell id="MkOw1DYcNHuiIUs4hIeb-22" style="edgeStyle=orthogonalEdgeStyle;rounded=0;orthogonalLoop=1;jettySize=auto;html=1;exitX=0.5;exitY=1;exitDx=0;exitDy=0;" parent="1" source="MkOw1DYcNHuiIUs4hIeb-19" target="MkOw1DYcNHuiIUs4hIeb-21" edge="1">
          <mxGeometry relative="1" as="geometry" />
        </mxCell>
        <mxCell id="MkOw1DYcNHuiIUs4hIeb-19" value="&lt;font style=&quot;font-size: 14px;&quot;&gt;Sistema de ecuaciones, para resolver las inecuaciones&lt;/font&gt;" style="ellipse;whiteSpace=wrap;html=1;fillColor=#ffe6cc;strokeColor=#d79b00;" parent="1" vertex="1">
          <mxGeometry x="314" y="310" width="222" height="90" as="geometry" />
        </mxCell>
        <mxCell id="MkOw1DYcNHuiIUs4hIeb-21" value="&lt;font style=&quot;font-size: 14px;&quot;&gt;Resolucion de Inecuaciones con dos variables&lt;/font&gt;" style="rounded=0;whiteSpace=wrap;html=1;fillColor=#f8cecc;strokeColor=#b85450;" parent="1" vertex="1">
          <mxGeometry x="348" y="450" width="155" height="70" as="geometry" />
        </mxCell>
        <mxCell id="MkOw1DYcNHuiIUs4hIeb-32" style="edgeStyle=orthogonalEdgeStyle;rounded=0;orthogonalLoop=1;jettySize=auto;html=1;exitX=0.5;exitY=1;exitDx=0;exitDy=0;entryX=0.5;entryY=0;entryDx=0;entryDy=0;" parent="1" source="MkOw1DYcNHuiIUs4hIeb-23" target="MkOw1DYcNHuiIUs4hIeb-28" edge="1">
          <mxGeometry relative="1" as="geometry" />
        </mxCell>
        <mxCell id="MkOw1DYcNHuiIUs4hIeb-23" value="Aplicaiones de las Inecuaciones" style="rounded=0;whiteSpace=wrap;html=1;fillColor=#f8cecc;strokeColor=#b85450;" parent="1" vertex="1">
          <mxGeometry x="620" y="95" width="120" height="60" as="geometry" />
        </mxCell>
        <mxCell id="MkOw1DYcNHuiIUs4hIeb-27" style="edgeStyle=orthogonalEdgeStyle;rounded=0;orthogonalLoop=1;jettySize=auto;html=1;exitX=0.5;exitY=1;exitDx=0;exitDy=0;entryX=0.5;entryY=0;entryDx=0;entryDy=0;" parent="1" source="MkOw1DYcNHuiIUs4hIeb-25" target="MkOw1DYcNHuiIUs4hIeb-6" edge="1">
          <mxGeometry relative="1" as="geometry" />
        </mxCell>
        <mxCell id="MkOw1DYcNHuiIUs4hIeb-25" value="&lt;font style=&quot;font-size: 14px;&quot;&gt;Inecuaciones sin Valor Absoluto&lt;/font&gt;" style="rounded=0;whiteSpace=wrap;html=1;fillColor=#f8cecc;strokeColor=#b85450;" parent="1" vertex="1">
          <mxGeometry x="82.5" y="295" width="120" height="60" as="geometry" />
        </mxCell>
        <mxCell id="MkOw1DYcNHuiIUs4hIeb-28" value="&lt;font style=&quot;font-size: 14px;&quot;&gt;Resolucion de ejercicos Practicos&lt;/font&gt;" style="rounded=0;whiteSpace=wrap;html=1;fillColor=#ffe6cc;strokeColor=#d79b00;" parent="1" vertex="1">
          <mxGeometry x="610" y="210" width="140" height="70" as="geometry" />
        </mxCell>
        <mxCell id="MkOw1DYcNHuiIUs4hIeb-30" style="edgeStyle=orthogonalEdgeStyle;rounded=0;orthogonalLoop=1;jettySize=auto;html=1;exitX=0.5;exitY=1;exitDx=0;exitDy=0;" parent="1" source="MkOw1DYcNHuiIUs4hIeb-29" target="MkOw1DYcNHuiIUs4hIeb-2" edge="1">
          <mxGeometry relative="1" as="geometry" />
        </mxCell>
        <mxCell id="MkOw1DYcNHuiIUs4hIeb-29" value="&lt;font style=&quot;font-size: 14px;&quot;&gt;Inecuaciones en una variable&lt;/font&gt;" style="rounded=0;whiteSpace=wrap;html=1;fillColor=#f8cecc;strokeColor=#b85450;" parent="1" vertex="1">
          <mxGeometry x="68" y="100" width="150" height="55" as="geometry" />
        </mxCell>
        <mxCell id="bZgRTKHH9K4wG6YEcAxq-1" value="&lt;div&gt;Luis Patino&lt;/div&gt;&lt;div&gt;30958673&lt;/div&gt;&lt;div&gt;Cemmvic&lt;br&gt;&lt;/div&gt;" style="text;html=1;align=center;verticalAlign=middle;whiteSpace=wrap;rounded=0;" parent="1" vertex="1">
          <mxGeometry x="740" y="1060" width="110" height="30" as="geometry" />
        </mxCell>
      </root>
    </mxGraphModel>
  </diagram>
</mxfile>
